<?xml version="1.0" encoding="utf-8"?>

<svg version="1.1" xmlns="http://www.w3.org/2000/svg" xmlns:xlink="http://www.w3.org/1999/xlink" x="0px" y="0px"
	 width="48px" height="48px" viewBox="0 0 128 128">
<g id="Ebene_1">
	<g>
		<g>
			<path fill="#414042" d="M67.611,81.505c3.447-0.228,5.792-0.063,8.464,0.932c2.547,0.968,4.098,1.648,6.229,4.094
				c1.946,2.206,2.716,3.866,3.351,6.692c0.504,2.699,0.257,4.353-0.278,7.074c-0.618,3.048-1.732,4.58-3.072,7.429
				c-1.235,2.611-2.657,3.908-3.539,6.515c-0.842,2.768-0.144,5.522,1.125,7.995c0.878,1.693,1.806,2.925,2.854,4.059h2.512
				c-1.005-1.034-1.558-1.752-2.577-3.033c-1.546-2.049-1.634-3.265-1.677-5.481c-0.023-2.343,0.67-3.725,1.589-5.771
				c1.313-2.686,1.381-2.791,2.129-4.645c1.036-2.606,1.778-4.053,2.329-6.794c0.46-2.665,0.764-4.26,0.277-6.88
				c-0.523-3.35-1.895-5.64-3.618-7.813c-2.039-2.408-3.735-3.298-6.796-4.372c-2.854-0.98-5.67-1.167-9.392-0.743L67.611,81.505z"
				/>
			<path fill="#414042" d="M69.108,2.279c-0.195,1.55-0.281,2.501-0.281,2.513c-0.191,1.164-0.344,1.814-0.753,2.965
				c-0.446,1.521-0.632,2.034-1.572,3.818c-0.728,1.191-1.315,2.067-2.145,3.252c-0.766,0.999-1.288,1.701-2.137,2.701
				c-0.029,85.175-0.101,85.283-0.096,85.274c4.218,0.029,7.66,2.872,8.19,7.063c0.443,3.688-1.836,6.83-4.647,8.37
				c-1.47,0.781-2.706,1.065-4.232,1.129V37.096h-0.658v82.276c-0.256,0-0.52-0.006-0.785-0.011c-0.08-0.01-0.153-0.01-0.231-0.01
				V63.505h-0.665v55.812c-0.272-0.014-0.552-0.052-0.832-0.071v-65.87h-0.656v65.768c-1.856-0.313-3.415-0.993-4.69-2.204
				c-1.817-1.689-2.685-4.338-2.606-6.786c0.122-2.066,0.803-4.368,2.886-5.862c1.254-0.988,2.388-1.294,3.814-1.395
				c-0.015-0.023,0.049,0,0-3.249c-1.324-0.01-3.945,0.671-6.135,2.97c-2.219,2.22-2.958,4.372-3.07,7.435
				c-0.108,2.394,1.082,5.414,2.604,7.066c2.185,2.491,4.357,3.6,7.196,4.009v5.166h0.658v-5.087
				c0.278,0.028,0.553,0.05,0.831,0.071v5.016h0.663v-4.987c0.011,0,0.028,0,0.037,0c0.33,0,0.651-0.007,0.98-0.027v5.015h0.658
				v-5.074c2.229-0.258,4.201-1.018,5.526-1.766c2.491-1.391,4.828-4.856,4.654-8.752c-0.07-3.176-1.171-5.581-3.626-7.249
				c-0.96-0.701-1.681-1.117-2.889-1.488l-1.301-49.008c-0.394-16.775-0.394-16.703-0.555-27.154
				c0.006-1.872-0.078-2.771,0.181-4.46c0.293-1.529,0.481-2.599,1.115-3.816c0.96-1.804,1.449-2.562,2.237-4.277
				C67.794,11,68.46,9.745,69.016,7.393c0.42-2.027,0.478-2.83,0.557-5.207C69.481,1.554,69.006,1.5,69.108,2.279z"/>
		</g>
		<path display="none" fill="#414042" d="M52.038,91.681c0.342,0.325,0.584,0.643,0.733,0.954c0.147,0.311,0.223,0.646,0.223,1.005
			c0,0.728-0.307,1.365-0.914,1.908c-0.61,0.545-1.393,0.815-2.349,0.815c-0.957,0-1.833-0.3-2.626-0.903
			c-0.795-0.601-1.192-1.376-1.192-2.323c0-0.589,0.188-1.074,0.562-1.458h-1.231c-0.762,0-1.231,0.018-1.407,0.055
			c-0.174,0.035-0.293,0.093-0.356,0.171c-0.064,0.077-0.097,0.175-0.097,0.291c0,0.127,0.041,0.294,0.116,0.501l-0.255,0.096
			l-0.815-1.988v-0.328h7.718c0.782,0,1.259-0.019,1.432-0.055c0.171-0.036,0.292-0.096,0.361-0.175
			c0.067-0.079,0.101-0.174,0.101-0.279c0-0.131-0.04-0.307-0.124-0.523l0.255-0.081l0.822,1.98v0.336L52.038,91.681L52.038,91.681z
			 M51.53,91.681h-3.438c-0.332,0.027-0.631,0.116-0.903,0.263c-0.272,0.144-0.476,0.337-0.615,0.579
			c-0.139,0.24-0.209,0.474-0.209,0.703c0,0.426,0.193,0.81,0.577,1.144c0.505,0.443,1.243,0.663,2.215,0.663
			c0.979,0,1.731-0.212,2.254-0.641s0.783-0.903,0.783-1.429C52.193,92.521,51.972,92.094,51.53,91.681z M45.918,86.632h5.363
			c0.417,0,0.695-0.029,0.834-0.092c0.139-0.061,0.243-0.151,0.31-0.27c0.069-0.119,0.103-0.336,0.103-0.652h0.261v3.242h-0.261
			c0-0.325-0.031-0.544-0.093-0.654c-0.064-0.111-0.168-0.2-0.314-0.266c-0.146-0.065-0.424-0.1-0.837-0.1h-2.573
			c-0.724,0-1.193,0.021-1.405,0.065c-0.156,0.034-0.265,0.088-0.326,0.16c-0.06,0.074-0.091,0.174-0.091,0.299
			c0,0.137,0.036,0.302,0.11,0.496l-0.263,0.102l-0.816-2.01v-0.322L45.918,86.632L45.918,86.632z M42.429,87.233
			c0-0.205,0.071-0.377,0.216-0.521c0.142-0.144,0.315-0.216,0.521-0.216c0.207,0,0.379,0.072,0.525,0.216
			c0.146,0.145,0.218,0.315,0.218,0.521c0,0.204-0.072,0.378-0.218,0.525c-0.146,0.146-0.32,0.22-0.525,0.22
			c-0.205,0-0.378-0.073-0.521-0.218C42.5,87.619,42.429,87.443,42.429,87.233z M48.63,83.666c0.991,0.005,1.769-0.236,2.333-0.722
			c0.563-0.486,0.846-1.057,0.846-1.714c0-0.436-0.12-0.816-0.36-1.139c-0.242-0.322-0.651-0.594-1.235-0.811l0.146-0.227
			c0.667,0.103,1.271,0.398,1.818,0.888c0.548,0.492,0.82,1.106,0.82,1.844c0,0.803-0.313,1.487-0.937,2.06
			c-0.624,0.571-1.462,0.856-2.517,0.856c-1.142,0-2.032-0.293-2.671-0.878c-0.639-0.585-0.958-1.319-0.958-2.205
			c0-0.747,0.247-1.362,0.739-1.844c0.494-0.479,1.153-0.721,1.979-0.721L48.63,83.666L48.63,83.666z M48.207,83.666v-3.091
			c-0.427,0.024-0.729,0.076-0.902,0.152c-0.271,0.124-0.486,0.303-0.642,0.545c-0.156,0.238-0.234,0.491-0.234,0.753
			c0,0.403,0.156,0.764,0.47,1.084C47.211,83.425,47.649,83.612,48.207,83.666z M42.684,69.47l3.119-0.255v0.255
			c-0.776,0.258-1.361,0.59-1.755,0.997c-0.567,0.588-0.852,1.344-0.852,2.267c0,1.258,0.498,2.215,1.493,2.871
			c0.839,0.549,1.842,0.823,3.003,0.823c0.94,0,1.8-0.184,2.578-0.548c0.779-0.364,1.347-0.841,1.708-1.432
			c0.363-0.591,0.543-1.197,0.543-1.818c0-0.365-0.046-0.717-0.139-1.057c-0.093-0.341-0.229-0.669-0.409-0.983h-2.856
			c-0.495,0-0.82,0.036-0.973,0.112c-0.154,0.074-0.269,0.192-0.351,0.35c-0.08,0.158-0.12,0.436-0.12,0.834h-0.278v-3.824h0.278
			v0.184c0,0.38,0.125,0.639,0.379,0.78c0.18,0.098,0.534,0.146,1.064,0.146h3.023c0.301,0.558,0.522,1.109,0.664,1.654
			c0.14,0.545,0.211,1.147,0.211,1.814c0,1.908-0.613,3.359-1.837,4.351c-0.917,0.743-1.978,1.115-3.176,1.115
			c-0.869,0-1.703-0.209-2.499-0.627c-0.948-0.496-1.676-1.175-2.187-2.038c-0.422-0.724-0.634-1.58-0.634-2.565
			c0-0.36,0.029-0.686,0.086-0.979s0.187-0.71,0.386-1.25c0.103-0.273,0.154-0.454,0.154-0.548c0-0.092-0.043-0.171-0.127-0.236
			c-0.083-0.064-0.251-0.104-0.499-0.12L42.684,69.47L42.684,69.47z M45.918,65.086h5.363c0.417,0,0.695-0.029,0.834-0.092
			c0.139-0.061,0.243-0.15,0.31-0.269c0.068-0.119,0.103-0.335,0.103-0.651h0.261v3.242h-0.261c0-0.326-0.031-0.546-0.093-0.656
			c-0.064-0.111-0.168-0.2-0.314-0.266c-0.146-0.065-0.424-0.1-0.837-0.1h-2.573c-0.724,0-1.193,0.024-1.405,0.067
			c-0.156,0.032-0.265,0.086-0.326,0.159c-0.06,0.073-0.091,0.171-0.091,0.298c0,0.137,0.036,0.302,0.11,0.497l-0.263,0.102
			l-0.816-2.011v-0.32H45.918L45.918,65.086z M42.429,65.69c0-0.204,0.071-0.379,0.216-0.521c0.142-0.143,0.315-0.213,0.521-0.213
			c0.207,0,0.379,0.071,0.525,0.213s0.218,0.317,0.218,0.521s-0.072,0.379-0.218,0.523c-0.146,0.147-0.32,0.219-0.525,0.219
			c-0.205,0-0.378-0.069-0.521-0.214C42.5,66.074,42.429,65.899,42.429,65.69z M43.923,61.305h2.193v-1.561h0.51v1.561h4.328
			c0.431,0,0.722-0.063,0.873-0.186c0.151-0.125,0.225-0.284,0.225-0.479c0-0.161-0.05-0.315-0.149-0.466
			c-0.1-0.149-0.246-0.266-0.441-0.349v-0.283c0.475,0.168,0.834,0.41,1.075,0.723c0.241,0.31,0.36,0.63,0.36,0.96
			c0,0.225-0.061,0.442-0.186,0.657c-0.122,0.212-0.301,0.371-0.531,0.474c-0.231,0.103-0.588,0.154-1.068,0.154h-4.487v1.055
			h-0.241c-0.107-0.266-0.289-0.54-0.543-0.819c-0.254-0.28-0.558-0.527-0.906-0.746c-0.186-0.112-0.522-0.266-1.013-0.466
			L43.923,61.305L43.923,61.305z M51.828,55.314c0.531,0.684,0.836,1.116,0.919,1.288c0.12,0.263,0.182,0.541,0.182,0.84
			c0,0.46-0.158,0.839-0.474,1.139c-0.316,0.3-0.731,0.447-1.245,0.447c-0.326,0-0.606-0.072-0.845-0.217
			c-0.328-0.2-0.642-0.544-0.933-1.04c-0.292-0.492-0.646-1.312-1.063-2.457h-0.263c-0.665,0-1.122,0.105-1.369,0.315
			c-0.248,0.212-0.372,0.521-0.372,0.922c0,0.307,0.083,0.548,0.248,0.728c0.165,0.184,0.355,0.277,0.568,0.277l0.421-0.016
			c0.224,0,0.395,0.058,0.518,0.17c0.121,0.115,0.183,0.264,0.183,0.448c0,0.182-0.063,0.328-0.188,0.443
			c-0.126,0.112-0.299,0.168-0.518,0.168c-0.417,0-0.802-0.215-1.15-0.642c-0.35-0.427-0.525-1.028-0.525-1.799
			c0-0.592,0.1-1.078,0.298-1.458c0.15-0.284,0.387-0.497,0.706-0.633c0.208-0.088,0.636-0.13,1.281-0.13h2.266
			c0.637,0,1.027-0.013,1.17-0.037c0.144-0.023,0.24-0.063,0.288-0.118c0.049-0.056,0.073-0.121,0.073-0.192
			c0-0.079-0.018-0.146-0.051-0.205c-0.063-0.103-0.239-0.298-0.531-0.592h0.409c0.729,0.543,1.094,1.066,1.094,1.56
			c0,0.237-0.083,0.427-0.247,0.568C52.508,55.236,52.227,55.31,51.828,55.314z M51.355,55.314h-2.542
			c0.292,0.733,0.5,1.207,0.619,1.421c0.213,0.385,0.439,0.656,0.67,0.823c0.231,0.166,0.488,0.248,0.764,0.248
			c0.35,0,0.64-0.104,0.872-0.313c0.23-0.209,0.346-0.451,0.346-0.722C52.083,56.402,51.84,55.918,51.355,55.314z M45.918,50.521
			h1.5c-1-0.559-1.5-1.133-1.5-1.719c0-0.267,0.081-0.488,0.245-0.664c0.163-0.175,0.35-0.264,0.564-0.264
			c0.189,0,0.35,0.063,0.48,0.191c0.131,0.126,0.197,0.277,0.197,0.451c0,0.17-0.084,0.361-0.252,0.573
			c-0.168,0.209-0.251,0.366-0.251,0.469c0,0.087,0.049,0.182,0.146,0.287c0.197,0.215,0.526,0.443,0.982,0.674h3.197
			c0.371,0,0.649-0.044,0.839-0.137c0.131-0.063,0.24-0.173,0.327-0.336c0.087-0.161,0.131-0.392,0.131-0.692h0.261v3.417h-0.261
			c0-0.34-0.054-0.594-0.161-0.758c-0.078-0.121-0.201-0.207-0.37-0.254c-0.082-0.026-0.318-0.036-0.705-0.036h-2.586
			c-0.778,0-1.239,0.015-1.388,0.049c-0.149,0.029-0.257,0.089-0.324,0.173c-0.068,0.083-0.103,0.19-0.103,0.315
			c0,0.151,0.036,0.323,0.11,0.511l-0.263,0.073l-0.815-2.018L45.918,50.521L45.918,50.521z M45.918,45.551h1.5
			c-1-0.558-1.5-1.132-1.5-1.719c0-0.266,0.081-0.488,0.245-0.663c0.163-0.173,0.35-0.261,0.564-0.261c0.189,0,0.35,0.063,0.48,0.19
			c0.131,0.128,0.197,0.277,0.197,0.453c0,0.17-0.084,0.361-0.252,0.571c-0.168,0.213-0.251,0.369-0.251,0.469
			c0,0.088,0.049,0.183,0.146,0.286c0.197,0.217,0.526,0.444,0.982,0.678h3.197c0.371,0,0.649-0.048,0.839-0.141
			c0.131-0.061,0.24-0.173,0.327-0.334c0.087-0.159,0.131-0.391,0.131-0.691h0.261v3.417h-0.261c0-0.34-0.054-0.592-0.161-0.757
			c-0.078-0.122-0.201-0.205-0.37-0.256c-0.082-0.024-0.318-0.034-0.705-0.034h-2.586c-0.778,0-1.239,0.017-1.388,0.048
			c-0.149,0.033-0.257,0.089-0.324,0.174c-0.068,0.085-0.103,0.193-0.103,0.317c0,0.149,0.036,0.32,0.11,0.509l-0.263,0.075
			l-0.815-2.019L45.918,45.551L45.918,45.551z M48.63,41.414c0.991,0.005,1.769-0.236,2.333-0.723
			c0.563-0.483,0.846-1.057,0.846-1.71c0-0.438-0.12-0.818-0.36-1.142c-0.242-0.323-0.651-0.594-1.235-0.811l0.146-0.226
			c0.667,0.103,1.271,0.396,1.818,0.886c0.548,0.492,0.82,1.106,0.82,1.845c0,0.802-0.313,1.488-0.937,2.059
			c-0.624,0.57-1.462,0.854-2.517,0.854c-1.142,0-2.032-0.293-2.671-0.876c-0.639-0.583-0.958-1.321-0.958-2.205
			c0-0.749,0.247-1.363,0.739-1.847c0.494-0.479,1.153-0.718,1.979-0.718L48.63,41.414L48.63,41.414z M48.207,41.414v-3.091
			c-0.427,0.026-0.729,0.077-0.902,0.153c-0.271,0.122-0.486,0.303-0.642,0.544c-0.156,0.238-0.234,0.492-0.234,0.753
			c0,0.402,0.156,0.763,0.47,1.083C47.211,41.173,47.649,41.358,48.207,41.414z M51.378,34.514c0-0.23,0.079-0.42,0.236-0.575
			c0.158-0.156,0.35-0.234,0.573-0.234c0.224,0,0.414,0.08,0.572,0.236c0.157,0.16,0.237,0.348,0.237,0.573
			s-0.079,0.414-0.237,0.571s-0.348,0.234-0.572,0.234c-0.228,0-0.418-0.078-0.576-0.234S51.378,34.737,51.378,34.514z
			 M50.255,26.512c0.879,0.182,1.556,0.532,2.028,1.058c0.474,0.526,0.71,1.105,0.71,1.742c0,0.756-0.317,1.417-0.956,1.98
			c-0.635,0.563-1.495,0.846-2.578,0.846c-1.049,0-1.902-0.313-2.557-0.938c-0.656-0.623-0.984-1.373-0.984-2.247
			c0-0.654,0.174-1.196,0.522-1.619c0.346-0.422,0.708-0.632,1.083-0.632c0.184,0,0.334,0.059,0.447,0.178
			c0.116,0.119,0.172,0.285,0.172,0.498c0,0.286-0.093,0.501-0.278,0.65c-0.103,0.082-0.296,0.137-0.583,0.164
			c-0.287,0.027-0.505,0.125-0.655,0.295c-0.146,0.171-0.219,0.405-0.219,0.706c0,0.486,0.18,0.877,0.539,1.172
			c0.475,0.396,1.105,0.591,1.888,0.591c0.796,0,1.5-0.196,2.11-0.589c0.609-0.39,0.916-0.917,0.916-1.583
			c0-0.475-0.165-0.904-0.489-1.281c-0.224-0.269-0.629-0.527-1.215-0.781L50.255,26.512z M42.429,23.599h4.881
			c-0.592-0.541-0.973-0.967-1.141-1.283c-0.167-0.316-0.253-0.63-0.253-0.949c0-0.376,0.105-0.704,0.313-0.975
			c0.209-0.271,0.537-0.474,0.984-0.603c0.312-0.093,0.879-0.139,1.705-0.139h2.36c0.421,0,0.711-0.033,0.866-0.103
			c0.117-0.049,0.209-0.129,0.278-0.248c0.069-0.116,0.103-0.331,0.103-0.641h0.261v3.277h-0.261v-0.151
			c0-0.313-0.047-0.527-0.142-0.649c-0.095-0.121-0.236-0.208-0.419-0.254c-0.078-0.016-0.305-0.022-0.684-0.022h-2.359
			c-0.728,0-1.208,0.037-1.436,0.113c-0.228,0.078-0.399,0.195-0.513,0.362c-0.113,0.165-0.171,0.364-0.171,0.597
			c0,0.237,0.063,0.486,0.19,0.743c0.126,0.259,0.381,0.566,0.765,0.925h3.526c0.458,0,0.742-0.027,0.854-0.077
			c0.111-0.053,0.205-0.146,0.28-0.285c0.075-0.138,0.112-0.378,0.112-0.718h0.261v3.307h-0.261c0-0.295-0.048-0.53-0.139-0.699
			c-0.049-0.098-0.142-0.172-0.278-0.233c-0.136-0.059-0.413-0.088-0.83-0.088h-6.04c-0.762,0-1.231,0.02-1.407,0.056
			c-0.175,0.037-0.293,0.09-0.358,0.167c-0.064,0.075-0.096,0.175-0.096,0.302c0,0.103,0.04,0.268,0.116,0.496l-0.256,0.103
			l-0.815-1.998L42.429,23.599L42.429,23.599z"/>
	</g>
</g>
</svg>
